<svg width="86" height="52" viewBox="0 0 86 52" fill="none" xmlns="http://www.w3.org/2000/svg">
<g clip-path="url(#clip0_48_236)">
<path d="M85.7202 24.6947C85.5996 24.5422 85.4465 24.4193 85.2724 24.3352C85.0984 24.2511 84.9078 24.2079 84.715 24.2089H78.8312C78.553 24.2204 78.2866 24.3256 78.074 24.5079L76.3986 19.5686L74.8674 16.5503C74.76 16.3383 74.597 16.1604 74.3963 16.0363C74.1955 15.9123 73.9649 15.8468 73.7298 15.8471H44.8119C44.577 15.8469 44.3467 15.9125 44.1462 16.0365C43.9458 16.1606 43.7831 16.3384 43.676 16.5503L42.0576 19.7962L40.7174 24.4705C40.5262 24.3565 40.3092 24.2945 40.0874 24.2904H34.1835C33.9922 24.2904 33.8033 24.3339 33.6309 24.4178C33.4584 24.5017 33.3067 24.6238 33.187 24.7751C33.0673 24.9265 32.9828 25.1031 32.9395 25.2921C32.8962 25.481 32.8954 25.6774 32.9371 25.8667L33.5687 28.7338C33.626 28.9978 33.7634 29.237 33.9618 29.4177C34.1601 29.5983 34.4094 29.7114 34.6744 29.741L37.9698 30.1079L36.008 32.2293C35.878 32.37 35.7804 32.5382 35.7225 32.7218C35.6645 32.9054 35.6476 33.0998 35.6729 33.2909L37.0685 43.5278V50.704C37.0683 50.8741 37.1011 51.0426 37.1652 51.1999C37.2292 51.3571 37.3232 51.5 37.4418 51.6203C37.5604 51.7407 37.7012 51.8362 37.8562 51.9013C38.0111 51.9665 38.1773 52 38.3451 52H48.0319C48.1997 52.0002 48.366 51.9669 48.5211 51.9018C48.6761 51.8367 48.817 51.7412 48.9356 51.6208C49.0543 51.5004 49.1483 51.3574 49.2122 51.2001C49.2762 51.0428 49.3089 50.8742 49.3085 50.704V47.9185H69.6236V50.704C69.6234 50.8743 69.6563 51.0429 69.7204 51.2002C69.7846 51.3576 69.8788 51.5005 69.9975 51.6209C70.1162 51.7413 70.2573 51.8368 70.4124 51.9018C70.5676 51.9669 70.7339 52.0002 70.9019 52H80.5903C80.7581 52 80.9243 51.9665 81.0793 51.9013C81.2342 51.8362 81.3751 51.7407 81.4936 51.6203C81.6122 51.5 81.7062 51.3571 81.7702 51.1999C81.8343 51.0426 81.8672 50.8741 81.8669 50.704V43.8064C81.8669 43.7758 81.8803 43.7452 81.8854 43.7164L83.3764 33.3028C83.4047 33.1085 83.3893 32.9102 83.3313 32.7228C83.2732 32.5354 83.1741 32.3638 83.0414 32.2208L80.969 30.0246L84.2426 29.6611C84.5073 29.6312 84.7562 29.518 84.9542 29.3374C85.1522 29.1567 85.2894 28.9177 85.3466 28.6539L85.9782 25.7868C86.0204 25.5975 86.0198 25.4009 85.9766 25.2118C85.9334 25.0227 85.8486 24.8459 85.7286 24.6947H85.7202ZM35.7801 26.879H39.4139L39.8361 27.4854L39.7741 27.6977L35.8589 27.2662L35.7801 26.879ZM79.3958 43.0692C79.3402 43.2149 79.3123 43.3699 79.3137 43.5261V49.4081H72.1801V47.9151H74.4419V45.3265H44.5019V47.9151H46.762V49.4081H39.6301L39.62 43.3495L38.2931 33.5473L41.6572 29.9057C41.7939 29.7583 41.8944 29.5802 41.9504 29.386L42.1414 28.7202L42.4765 27.7197C42.4948 27.6333 42.5033 27.5449 42.5016 27.4565L44.4148 20.7524L45.5876 18.4357H72.9609L74.0565 20.5775L77.0386 29.4386C77.098 29.6174 77.1952 29.7809 77.3234 29.9176L80.7579 33.5541L79.3958 43.0692ZM83.0464 27.1847L79.1261 27.6212L79.0608 27.4259L79.4947 26.7992H83.1318L83.0464 27.1847Z" fill="#EE1D23"/>
<path d="M68.099 34.0756C67.9826 33.8937 67.8233 33.744 67.6355 33.6402C67.4477 33.5364 67.2374 33.4818 67.0235 33.4811H51.1044C50.8905 33.4816 50.6801 33.5362 50.4923 33.64C50.3045 33.7439 50.1452 33.8936 50.0289 34.0756L48.3401 36.7389C48.2013 36.959 48.1311 37.2163 48.1385 37.4775C48.146 37.7386 48.2308 37.9914 48.382 38.203L51.2301 42.1656C51.3487 42.3297 51.5038 42.4633 51.6828 42.5553C51.8618 42.6474 52.0597 42.6954 52.2604 42.6955H65.8541C66.0548 42.6956 66.2527 42.6476 66.4318 42.5555C66.6108 42.4634 66.7659 42.3298 66.8844 42.1656L69.7325 38.203C69.8839 37.9916 69.969 37.7389 69.9768 37.4777C69.9846 37.2166 69.9146 36.9591 69.776 36.7389L68.099 34.0756ZM65.2091 40.107H52.9171L50.962 37.3894L51.7997 36.0662H66.3249L67.1625 37.3894L65.2091 40.107Z" fill="#EE1D23"/>
<path d="M42.0308 32.6268H46.4705V35.217H42.0308V32.6268Z" fill="#EE1D23"/>
<path d="M72.4415 32.6268H76.8812V35.217H72.4415V32.6268Z" fill="#EE1D23"/>
<path d="M24.9157 0H5.87045C5.53187 0 5.20716 0.136359 4.96775 0.379081C4.72834 0.621804 4.59384 0.951006 4.59384 1.29427V4.32102H1.27835C0.940495 4.32282 0.617079 4.46014 0.378802 4.70299C0.140525 4.94584 0.00677026 5.27445 0.0067749 5.61698V40.3516C0.00677476 40.5217 0.0398507 40.6901 0.104111 40.8473C0.168371 41.0044 0.262555 41.1472 0.381276 41.2674C0.499998 41.3876 0.640928 41.4829 0.796006 41.5478C0.951084 41.6128 1.11727 41.6461 1.28506 41.6459H4.60054V50.7006C4.60032 50.8707 4.63319 51.0391 4.69727 51.1962C4.76135 51.3533 4.85537 51.4961 4.97396 51.6163C5.09255 51.7366 5.23337 51.8319 5.38835 51.8968C5.54334 51.9618 5.70944 51.9951 5.87715 51.9949H24.9157C25.2542 51.9949 25.579 51.8585 25.8184 51.6158C26.0578 51.3731 26.1923 51.0439 26.1923 50.7006V1.29427C26.1923 1.1243 26.1592 0.956 26.0951 0.798972C26.0309 0.641945 25.9369 0.499265 25.8184 0.379081C25.6998 0.258898 25.5591 0.163562 25.4042 0.0985193C25.2493 0.0334763 25.0833 0 24.9157 0ZM2.55496 6.91295H16.8875V39.0556H2.55496V6.91295ZM23.6391 49.4064H7.14873V41.6459H18.1657C18.3336 41.6461 18.4998 41.6127 18.6549 41.5476C18.81 41.4826 18.9509 41.3871 19.0695 41.2667C19.1881 41.1463 19.2821 41.0033 19.3461 40.846C19.4101 40.6887 19.4428 40.5201 19.4423 40.3499V5.55414C19.4423 5.38335 19.409 5.21424 19.3443 5.05655C19.2796 4.89885 19.1848 4.75567 19.0654 4.63524C18.8225 4.39575 18.412 4.21571 18.1574 4.25987L7.14873 4.32272V2.59023H23.6391V49.4064Z" fill="#EE1D23"/>
</g>
<defs>
<clipPath id="clip0_48_236">
<rect width="86" height="52" fill="white"/>
</clipPath>
</defs>
</svg>
