<svg width="77" height="55" viewBox="0 0 77 55" fill="none" xmlns="http://www.w3.org/2000/svg">
<g clip-path="url(#clip0_48_234)">
<path d="M77 40.3196L74.5277 39.9597C75.1114 37.161 75.3963 34.3084 75.3775 31.4497C75.3775 22.3676 71.6499 16.6665 71.5147 16.4479C71.4037 16.2799 71.2527 16.142 71.0751 16.0466C70.8976 15.9512 70.6991 15.9014 70.4975 15.9016H63.1194C62.7943 15.9033 62.4832 16.0334 62.254 16.2634C62.0248 16.4935 61.8961 16.8048 61.8961 17.1292V22.0206H58.8315V17.1292C58.8315 16.8048 58.7029 16.4935 58.4737 16.2634C58.2445 16.0334 57.9333 15.9033 57.6083 15.9016H53.4622L50.1208 9.24273C50.02 9.03865 49.8641 8.86673 49.6708 8.74635C49.4774 8.62597 49.2542 8.5619 49.0263 8.5614H37.9978V2.44244H45.3501C45.6745 2.44244 45.9857 2.31378 46.2151 2.08475C46.4445 1.85573 46.5734 1.54511 46.5734 1.22122C46.5734 0.89733 46.4445 0.586706 46.2151 0.357682C45.9857 0.128658 45.6745 0 45.3501 0H20.8402C20.5158 0 20.2046 0.128658 19.9752 0.357682C19.7458 0.586706 19.6169 0.89733 19.6169 1.22122C19.6169 1.54511 19.7458 1.85573 19.9752 2.08475C20.2046 2.31378 20.5158 2.44244 20.8402 2.44244H28.1925V8.5614H20.2221C20.0321 8.56089 19.8447 8.60483 19.6747 8.68966C19.5048 8.77449 19.3571 8.89785 19.2435 9.04989L15.9343 13.4592H14.0994C13.2944 13.4566 12.4968 13.6129 11.7524 13.9191C11.0081 14.2253 10.3317 14.6754 9.76212 15.2434C9.19256 15.8114 8.74104 16.4862 8.43355 17.229C8.12606 17.9718 7.96864 18.768 7.97034 19.5717V23.8588H2.4529V12.8421C2.43043 12.5327 2.29145 12.2432 2.06391 12.032C1.83638 11.8207 1.53716 11.7032 1.22642 11.7032C0.915676 11.7032 0.616449 11.8207 0.388917 12.032C0.161385 12.2432 0.0224425 12.5327 -2.70694e-05 12.8421V36.7009C-0.0122457 36.8692 0.0104004 37.0382 0.0664997 37.1973C0.122599 37.3564 0.210922 37.5023 0.326005 37.6258C0.441088 37.7493 0.580426 37.8479 0.735343 37.9152C0.890261 37.9826 1.05744 38.0174 1.22642 38.0174C1.39539 38.0174 1.56257 37.9826 1.71749 37.9152C1.87241 37.8479 2.01174 37.7493 2.12683 37.6258C2.24191 37.5023 2.33027 37.3564 2.38637 37.1973C2.44247 37.0382 2.46512 36.8692 2.4529 36.7009V26.3013H7.97034V35.4861C7.9699 37.1077 8.61356 38.6633 9.76016 39.8118L6.32218 40.3068L11.7302 45.5709L10.4426 53.001L17.1318 49.4916L23.8146 53.001L22.527 45.5709L23.7309 44.4011L29.1325 49.7873C29.2454 49.9011 29.3797 49.9915 29.5278 50.0533C29.6759 50.1151 29.8347 50.147 29.9952 50.1472H34.5019L33.6714 54.9871L41.6482 50.8028L49.625 54.9871L48.7945 50.1472H58.1942C58.355 50.1481 58.5145 50.1171 58.6633 50.056C58.8121 49.9949 58.9473 49.905 59.0611 49.7915C59.1748 49.6779 59.2649 49.5429 59.3261 49.3944C59.3872 49.2458 59.4183 49.0866 59.4174 48.926V44.2661L60.7566 45.5516L59.4689 52.9818L66.1517 49.4724L72.8345 52.9818L71.8366 47.1585C72.4703 46.0737 72.9985 44.9308 73.4139 43.7455L77 40.3196ZM30.6454 2.44244H35.5513V8.5614H30.6454V2.44244ZM20.4152 48.3411L17.1576 46.625L13.8934 48.3411L14.5372 44.7096L11.8912 42.1386L15.4515 41.618H15.5416L16.7198 39.1498L17.1447 38.2885L17.5696 39.1498L18.7735 41.5858H18.8637L21.2844 41.9393L21.9282 42.5821L19.7779 44.671L20.4152 48.3411ZM46.2257 50.3272L45.9553 50.1858L41.674 47.9362L37.3861 50.1858L37.1158 50.3272V50.1858L37.5342 47.7434L37.9591 45.2623L34.2701 41.6758L39.3691 40.9367L41.6482 36.3281L43.9273 40.9367L49.0198 41.6758L45.3308 45.2623L45.7557 47.7434L46.1742 50.1858L46.2257 50.3272ZM56.9902 47.7562H48.3954L48.125 46.1751L54.5631 39.889L45.6463 38.6035L41.6611 30.537L37.6694 38.6035L28.7526 39.889L35.1908 46.1751L34.9204 47.7562H30.5102L25.4885 42.7428L27.9414 40.3582L22.2759 39.5419C22.0495 39.3181 21.7446 39.1912 21.426 39.1884H20.4539L17.1576 32.5166L13.8612 39.1755C12.9287 39.1182 12.0531 38.708 11.413 38.0284C10.773 37.3488 10.4167 36.4511 10.4169 35.5183V19.5717C10.4219 18.5999 10.8108 17.6693 11.4992 16.9821C12.1875 16.295 13.1196 15.9067 14.093 15.9016H16.5459C16.7359 15.9021 16.9234 15.8582 17.0933 15.7733C17.2633 15.6885 17.4109 15.5651 17.5245 15.4131L20.8337 11.0103H48.2666L51.6015 17.6692C51.704 17.8733 51.8611 18.045 52.0555 18.1653C52.2498 18.2856 52.4738 18.3497 52.7025 18.3505H56.3786V23.2739C56.3784 23.4352 56.4101 23.5948 56.472 23.7438C56.5339 23.8927 56.6247 24.0279 56.7392 24.1416C56.8519 24.2557 56.9862 24.3463 57.1343 24.4081C57.2824 24.4699 57.4414 24.5017 57.6019 24.5016H63.1194C63.2824 24.505 63.4445 24.4757 63.5959 24.4154C63.7474 24.3551 63.8852 24.265 64.0011 24.1505C64.117 24.036 64.2087 23.8994 64.2707 23.7488C64.3327 23.5982 64.3637 23.4367 64.3619 23.2739V18.3826H69.7957C71.9072 22.4245 72.9885 26.9235 72.9439 31.4818C72.964 34.223 72.6833 36.9581 72.107 39.6383L69.5317 39.2719L66.1904 32.5102L62.849 39.2719L59.2436 39.7926H58.22C57.9491 39.792 57.686 39.8825 57.4731 40.0497L55.3743 40.3518L56.9902 41.9265V47.7562ZM62.9327 48.3475L63.5765 44.7224L61.9219 43.1156L61.027 42.2479L60.9368 42.1579L64.3684 41.6565L64.5808 41.6244L66.2161 38.3271L67.8449 41.6244L71.4374 42.1514C71.4296 42.1824 71.4188 42.2125 71.4052 42.2414L68.83 44.716L69.036 45.9115L69.4544 48.3475L66.1904 46.6314L62.9391 48.3411L62.9327 48.3475Z" fill="#EE1D23"/>
</g>
<defs>
<clipPath id="clip0_48_234">
<rect width="77" height="55" fill="white"/>
</clipPath>
</defs>
</svg>
