<svg width="41" height="53" viewBox="0 0 41 53" fill="none" xmlns="http://www.w3.org/2000/svg">
<g clip-path="url(#clip0_48_230)">
<path d="M40.7925 19.2347L36.35 4.46745C36.0445 3.45307 35.42 2.56307 34.5683 1.92841C33.7167 1.29374 32.6829 0.947925 31.619 0.941839H20.9933C19.7087 0.938524 18.4738 1.43565 17.5526 2.3269C16.9353 2.92625 15.7361 4.0746 14.1524 5.51507C13.8815 5.37674 13.5815 5.30424 13.2771 5.30352H13.272V1.92901C13.2706 1.41694 13.0653 0.926311 12.7011 0.564695C12.3369 0.203079 11.8434 -1.73634e-06 11.329 0H4.86757C4.35314 -1.73634e-06 3.8597 0.203079 3.49546 0.564695C3.13123 0.926311 2.92592 1.41694 2.92458 1.92901V5.39922C2.92458 5.45462 2.92458 5.51002 2.92458 5.56542C2.61949 5.7306 2.36461 5.97435 2.18658 6.27117C2.00856 6.568 1.91392 6.90699 1.91261 7.25268V15.4019C1.31524 15.8601 0.831019 16.4482 0.496903 17.1212C0.162786 17.7943 -0.0123828 18.5344 -0.0151978 19.2851V48.0843C-0.0125199 49.3881 0.509343 50.6376 1.43599 51.5591C2.36264 52.4805 3.61848 52.9987 4.92829 53H36.0413C37.3511 52.9987 38.607 52.4805 39.5336 51.5591C40.4603 50.6376 40.9821 49.3881 40.9848 48.0843V20.6651C40.992 20.1815 40.9272 19.6995 40.7925 19.2347ZM11.754 7.6959L10.7016 8.60752L10.312 8.9349C9.93754 9.25724 9.56311 9.57455 9.18868 9.88178L9.00147 10.0379C8.57138 10.3955 8.15141 10.738 7.73144 11.0754L7.3975 11.3424L6.4513 12.1029L6.08699 12.385C5.69232 12.6922 5.30271 12.9894 4.91816 13.2714C4.89327 13.2942 4.86615 13.3144 4.8372 13.3318C4.53867 13.5585 4.2452 13.77 3.95173 13.9816V7.33327H12.1588L12.0526 7.42392L11.754 7.6959ZM4.94852 2.02974H11.248V5.33374H4.97383L4.94852 2.02974ZM38.976 48.0994C38.9694 48.8689 38.6569 49.6044 38.107 50.1452C37.557 50.686 36.8144 50.9881 36.0413 50.9854H4.94347C4.17044 50.984 3.42938 50.6781 2.8823 50.1345C2.33521 49.5909 2.0266 48.8538 2.02392 48.0843V19.2851C2.02667 18.8072 2.14656 18.3372 2.37318 17.9159C2.59979 17.4946 2.92628 17.1347 3.32431 16.8675L3.51152 16.7416C4.34808 16.1742 5.20995 15.558 6.09712 14.8932C8.77378 12.8786 11.6984 10.4761 14.8355 7.65058L15.3415 7.17714C17.0315 5.64098 18.3167 4.41205 18.9593 3.79255C19.502 3.26883 20.2273 2.97461 20.9832 2.97158H31.6089C32.2353 2.97542 32.844 3.17832 33.3465 3.55068C33.8489 3.92304 34.2187 4.44541 34.4019 5.04163L38.8445 19.819C38.9255 20.0869 38.9664 20.3652 38.9659 20.645L38.976 48.0994Z" fill="#EE1D23"/>
<path d="M20.1079 15.3968H30.7791C31.3553 15.3969 31.9079 15.1694 32.3158 14.7643C32.7237 14.3592 32.9535 13.8097 32.9548 13.2361V7.48436C32.9535 6.91038 32.7238 6.3603 32.3161 5.95443C31.9084 5.54857 31.3557 5.31996 30.7791 5.31863H23.2804C22.8907 5.3196 22.5084 5.42425 22.173 5.62172C21.8376 5.8192 21.5614 6.10233 21.3728 6.4418L18.2003 12.1936C18.0196 12.5232 17.928 12.894 17.9347 13.2695C17.9414 13.6451 18.0461 14.0124 18.2385 14.3354C18.4309 14.6585 18.7044 14.9262 19.0321 15.1123C19.3599 15.2984 19.7306 15.3965 20.1079 15.3968ZM19.9763 13.1606L23.1488 7.41386C23.1611 7.38958 23.1799 7.36918 23.2031 7.35494C23.2263 7.34071 23.2531 7.3332 23.2804 7.33327H30.7791C30.8194 7.33327 30.858 7.34918 30.8864 7.37752C30.9149 7.40586 30.9309 7.44429 30.9309 7.48436V13.2361C30.9309 13.2558 30.927 13.2752 30.9193 13.2932C30.9116 13.3113 30.9003 13.3276 30.8862 13.3413C30.872 13.3549 30.8552 13.3655 30.8368 13.3726C30.8184 13.3796 30.7988 13.3829 30.7791 13.3822H20.1079C20.0816 13.3833 20.0555 13.3773 20.0324 13.3649C20.0093 13.3525 19.9899 13.3341 19.9763 13.3117C19.963 13.2887 19.956 13.2627 19.956 13.2361C19.956 13.2096 19.963 13.1836 19.9763 13.1606Z" fill="#EE1D23"/>
<path d="M34.8573 36.2785C34.4737 32.2584 33.5091 28.3143 31.9935 24.5685L30.5818 21.0781C30.3286 20.443 29.889 19.8986 29.3204 19.5159C28.7517 19.1332 28.0805 18.9299 27.3941 18.9325H8.35383C7.44305 18.9339 6.56996 19.2946 5.92594 19.9356C5.28192 20.5767 4.91952 21.4458 4.91818 22.3524V45.2839C4.91818 46.1909 5.28016 47.0608 5.92447 47.7021C6.56878 48.3435 7.44264 48.7038 8.35383 48.7038H32.2768C32.7553 48.7038 33.2285 48.6043 33.6661 48.4117C34.1038 48.2191 34.4962 47.9377 34.8182 47.5854C35.1402 47.2331 35.3847 46.8177 35.5361 46.3659C35.6875 45.9141 35.7424 45.4358 35.6973 44.9616L34.8573 36.2785ZM33.3394 46.2459C33.2082 46.3915 33.0474 46.5076 32.8677 46.5866C32.688 46.6656 32.4935 46.7057 32.2971 46.7043H8.35383C7.97942 46.7043 7.62034 46.5562 7.3556 46.2927C7.09085 46.0292 6.94212 45.6717 6.94212 45.2991V22.3524C6.94212 21.9797 7.09085 21.6223 7.3556 21.3587C7.62034 21.0952 7.97942 20.9472 8.35383 20.9472H27.3941C27.6761 20.9464 27.9519 21.03 28.1855 21.1871C28.4192 21.3443 28.6001 21.5678 28.7046 21.8286L30.1163 25.3189C31.5572 28.8815 32.4756 32.6319 32.8435 36.4548L33.6784 45.153C33.6994 45.3478 33.6782 45.5448 33.6163 45.7307C33.5543 45.9166 33.453 46.0872 33.3191 46.2308L33.3394 46.2459Z" fill="#EE1D23"/>
</g>
<defs>
<clipPath id="clip0_48_230">
<rect width="41" height="53" fill="white"/>
</clipPath>
</defs>
</svg>
