<svg width="12" height="14" viewBox="0 0 12 14" fill="none" xmlns="http://www.w3.org/2000/svg">
<path fill-rule="evenodd" clip-rule="evenodd" d="M8.50001 2.8C8.50001 4.4 7.20001 5.7 5.60001 5.7C4.00001 5.7 2.70001 4.5 2.70001 2.9C2.70001 1.3 4.00001 0 5.60001 0C7.20001 0 8.50001 1.2 8.50001 2.8ZM7.50001 2.9C7.50001 1.8 6.60001 1 5.60001 1C4.60001 1 3.70001 1.7 3.70001 2.8C3.70001 3.9 4.60001 4.7 5.60001 4.7C6.60001 4.7 7.50001 4 7.50001 2.9ZM5.5 6.19995H5.7C8.8 6.19995 11.2 8.59995 11.2 11.7C11.2 12.5 10.5 13.2 9.7 13.2H1.5C0.7 13.2 0 12.5 0 11.7C0 8.69995 2.5 6.19995 5.5 6.19995ZM1.5 12.2H9.7C10 12.2 10.2 11.9 10.3 11.7C10.3 9.19995 8.3 7.19995 5.8 7.19995H5.5C3 7.19995 1 9.19995 1 11.7C1 12 1.2 12.2 1.5 12.2Z" fill="black"/>
</svg>
