<svg width="16" height="11" viewBox="0 0 16 11" fill="none" xmlns="http://www.w3.org/2000/svg">
<path d="M15.2632 0.293614C15.2632 0.293614 15.2632 0.233612 15.2632 0.213612C15.2355 0.166169 15.202 0.12248 15.1632 0.0836149L15.0732 0.00361305C15.0333 -0.00120435 14.993 -0.00120435 14.9532 0.00361305H14.8632H0.403174C0.373324 -0.000626761 0.343028 -0.000626761 0.313177 0.00361305C0.273322 -0.00120435 0.233037 -0.00120435 0.193182 0.00361305L0.103155 0.0836149C0.0643846 0.12248 0.0307998 0.166169 0.00317986 0.213612C0.00317986 0.213612 0.00317986 0.213614 0.00317986 0.293614C-0.00105995 0.323464 -0.00105995 0.35376 0.00317986 0.38361V10.0836C0.00317986 10.2162 0.055835 10.3434 0.149603 10.4372C0.243371 10.5309 0.370572 10.5836 0.50318 10.5836H14.7932C14.9258 10.5836 15.053 10.5309 15.1467 10.4372C15.2405 10.3434 15.2932 10.2162 15.2932 10.0836V0.38361C15.2877 0.352286 15.2776 0.321957 15.2632 0.293614ZM7.59318 5.73361L1.78318 0.88361H13.4132L7.59318 5.73361ZM0.903174 1.45361L5.01316 4.88361L0.903174 8.31361V1.45361ZM5.79316 5.53361L7.27317 6.76362C7.36213 6.84033 7.4757 6.88253 7.59318 6.88253C7.71065 6.88253 7.82422 6.84033 7.91318 6.76362L9.39316 5.53361L14.2532 9.58362H0.943182L5.79316 5.53361ZM10.1732 4.88361L14.2932 1.45361V8.31361L10.1732 4.88361Z" fill="black"/>
</svg>
