<svg width="24" height="16" viewBox="0 0 24 16" fill="none" xmlns="http://www.w3.org/2000/svg">
<path d="M23.453 1.82364C23.183 2.66701 22.819 3.40111 22.363 4.06766L22.382 4.03786C21.934 4.77958 21.399 5.63653 20.777 6.60871C20.2437 7.37625 19.9613 7.7736 19.93 7.80075C19.792 7.97261 19.696 8.1832 19.663 8.41466L19.662 8.42161C19.689 8.6322 19.787 8.81598 19.93 8.95306L20.33 9.39611C22.47 11.5809 23.6737 13.0868 23.941 13.914C23.976 14.0054 23.996 14.1106 23.996 14.2209C23.996 14.4136 23.934 14.5914 23.829 14.7375L23.831 14.7345C23.655 14.9143 23.409 15.0255 23.137 15.0255C23.107 15.0255 23.076 15.0246 23.047 15.0216H23.051H20.42C20.419 15.0216 20.417 15.0216 20.415 15.0216C20.078 15.0216 19.768 14.9044 19.525 14.7097L19.528 14.7116C19.174 14.4226 18.859 14.1097 18.577 13.7699L18.568 13.758C18.1073 13.2408 17.6987 12.8054 17.342 12.4517C16.154 11.3299 15.2773 10.7689 14.712 10.7689C14.691 10.767 14.667 10.766 14.642 10.766C14.477 10.766 14.323 10.8166 14.196 10.9031L14.199 10.9011C14.095 11.0302 14.032 11.1971 14.032 11.3769C14.032 11.4127 14.034 11.4464 14.039 11.4812V11.4772C14.012 11.7891 13.996 12.1517 13.996 12.5183C13.996 12.6365 13.998 12.7537 14.001 12.8709V12.854V14.0054C14.011 14.052 14.017 14.1057 14.017 14.1603C14.017 14.4007 13.907 14.6153 13.735 14.7573L13.734 14.7583C13.347 14.9342 12.895 15.0375 12.418 15.0375C12.316 15.0375 12.216 15.0325 12.117 15.0236L12.13 15.0246C10.556 14.9947 9.096 14.5368 7.855 13.765L7.89 13.7848C6.379 12.8729 5.127 11.6858 4.173 10.2832L4.146 10.2415C3.24 9.04743 2.395 7.69843 1.675 6.27593L1.605 6.12295C1.184 5.32626 0.748 4.3468 0.372 3.33952L0.312 3.15575C0.159 2.70277 0.048 2.17628 0.002 1.63092L0 1.60609C0 1.1041 0.297333 0.853112 0.892 0.853112H3.522C3.546 0.851125 3.574 0.850131 3.603 0.850131C3.851 0.850131 4.08 0.934568 4.261 1.07662L4.259 1.07463C4.459 1.29218 4.607 1.5594 4.68 1.85741L4.683 1.86933C5.167 3.22727 5.68 4.36766 6.27 5.46037L6.203 5.32428C6.685 6.28785 7.218 7.11731 7.826 7.8832L7.803 7.85241C8.33633 8.50273 8.75233 8.8279 9.051 8.8279C9.06 8.82889 9.071 8.82889 9.083 8.82889C9.231 8.82889 9.36 8.74942 9.43 8.63022L9.431 8.62823C9.505 8.43949 9.548 8.21996 9.548 7.99148C9.548 7.9428 9.546 7.89413 9.542 7.84645V7.85241V3.99912C9.521 3.54515 9.409 3.12098 9.222 2.74052L9.23 2.75939C9.106 2.49714 8.957 2.27065 8.78 2.069L8.783 2.07297C8.619 1.91006 8.507 1.69648 8.472 1.45807L8.471 1.45211C8.471 1.28324 8.549 1.13126 8.671 1.03192L8.672 1.03092C8.793 0.920661 8.955 0.854105 9.132 0.854105H9.14H13.286C13.308 0.851125 13.333 0.850131 13.359 0.850131C13.554 0.850131 13.729 0.937548 13.845 1.07463L13.846 1.07563C13.949 1.26238 14.01 1.48589 14.01 1.72231C14.01 1.76006 14.008 1.79681 14.005 1.83357V1.8286V6.96731C14.003 6.99115 14.002 7.01897 14.002 7.04678C14.002 7.22956 14.053 7.40142 14.141 7.54744L14.139 7.54347C14.212 7.65075 14.334 7.72029 14.472 7.72029H14.473C14.649 7.70837 14.809 7.65075 14.944 7.55936L14.941 7.56135C15.213 7.37559 15.447 7.164 15.65 6.9246L15.654 6.91963C16.261 6.23818 16.821 5.4852 17.309 4.68455L17.348 4.61501C17.692 4.04879 18.064 3.35144 18.401 2.63522L18.463 2.48919L18.909 1.60311C19.064 1.16006 19.48 0.848145 19.969 0.848145C19.988 0.848145 20.007 0.848144 20.026 0.849138H20.023H22.654C23.3647 0.849138 23.6313 1.17397 23.454 1.82364H23.453Z" fill="#256DFF"/>
</svg>
